# Apple ModelIO OBJ File: PUSHILIN_star
mtllib PUSHILIN_star.mtl
g 
v -0.0481066 -0.0156308 -0.0261911
v 0 -0.0505823 -0.0261911
v -0.0588205 -0.0809596 0
v 0.0481066 -0.0156308 -0.0261911
v 0.0588205 -0.0809595 0
v 0.0297315 0.040922 -0.0261911
v 0.0951736 0.0309238 0
v -0.0951736 0.0309238 0
v -0.0297315 0.0409219 -0.0261911
v 0 0.100071 0
v -0.0392026 0.0539578 0
v 0.0392026 0.0539578 0
v 0.0634312 -0.02061 0
v 0 -0.0666955 0
v -0.0634312 -0.0206101 0
v -0.0481066 -0.0156308 0.0261911
v 0 -0.0505823 0.0261911
v 0.0481066 -0.0156308 0.0261911
v 0.0297315 0.040922 0.0261911
v -0.0297315 0.0409219 0.0261911
vn -0.238 -0.3276 -0.9144
vn 0.238 -0.3276 -0.9144
vn 0 0 -1
vn 0.3851 0.1251 -0.9144
vn -0.3851 0.1251 -0.9144
vn -0 0.4049 -0.9144
vn -0.3266 0.7937 -0.5132
vn -0.6539 0.5559 -0.5132
vn 0.6539 0.5559 -0.5132
vn 0.3266 0.7937 -0.5132
vn 0.7308 -0.4501 -0.5132
vn 0.8558 -0.0654 -0.5132
vn -0.2023 -0.8341 -0.5132
vn 0.2023 -0.8341 -0.5132
vn -0.8558 -0.0654 -0.5132
vn -0.7308 -0.4501 -0.5132
vn -0.238 -0.3276 0.9144
vn 0.238 -0.3276 0.9144
vn 0 0 1
vn 0.3851 0.1251 0.9144
vn -0.3851 0.1251 0.9144
vn -0 0.4049 0.9144
vn -0.3266 0.7937 0.5132
vn -0.6539 0.5559 0.5132
vn 0.6539 0.5559 0.5132
vn 0.3266 0.7937 0.5132
vn 0.7308 -0.4501 0.5132
vn 0.8558 -0.0654 0.5132
vn -0.2023 -0.8341 0.5132
vn 0.2023 -0.8341 0.5132
vn -0.8558 -0.0654 0.5132
vn -0.7308 -0.4501 0.5132
vt 0.494 0.6893
vt 0.3443 0.6125
vt 0.494 0.499
vt 0.3443 0.3739
vt 0.494 0.2971
vt 0.494 0.4875
vt 0.6662 0.3492
vt 0.7646 0.2109
vt 0.7646 0.4875
vt 0.333 0.4875
vt 0.1834 0.3739
vt 0.333 0.2971
vt 0.1062 0.0225
vt 0.1899 0.2856
vt 0.0224 0.2856
vt 0.1721 0.4875
vt 0.0224 0.3739
vt 0.1721 0.2971
vt 0.5052 0.5845
vt 0.6719 0.499
vt 0.6719 0.6699
vt 0.7816 0.7756
vt 0.6831 0.6373
vt 0.7816 0.499
vt 0.166 0.7008
vt 0.166 0.8912
vt 0.1256 0.7221
vt 0.0224 0.8699
vt 0.0628 0.7008
vt 0.0628 0.8912
vt 0.926 0.2109
vt 0.926 0.4012
vt 0.8856 0.2321
vt 0.9026 0.6681
vt 0.9429 0.499
vt 0.9429 0.6893
vt 0.8267 0.7871
vt 0.8267 0.9775
vt 0.7863 0.8084
vt 0.2804 0.8699
vt 0.3208 0.7008
vt 0.3208 0.8912
vt 0.4878 0.7008
vt 0.4878 0.8912
vt 0.4475 0.7221
vt 0.8379 0.9562
vt 0.8783 0.7871
vt 0.8783 0.9775
vt 0.3846 0.7008
vt 0.3846 0.8912
vt 0.3443 0.7221
vt 0.2288 0.8699
vt 0.2692 0.7008
vt 0.2692 0.8912
vt 0.333 0.499
vt 0.333 0.6893
vt 0.1834 0.5758
vt 0.5297 0.0225
vt 0.5297 0.2129
vt 0.38 0.0993
vt 0.7929 0.6373
vt 0.8913 0.499
vt 0.8913 0.7756
vt 0.6549 0.2971
vt 0.6549 0.4875
vt 0.5052 0.4107
vt 0.285 0.0225
vt 0.3687 0.2856
vt 0.2012 0.2856
vt 0.5409 0.108
vt 0.7076 0.0225
vt 0.7076 0.1935
vt 0.1721 0.499
vt 0.1721 0.6893
vt 0.0224 0.6125
vt 0.8744 0.2109
vt 0.8744 0.4875
vt 0.7759 0.3492
vt 0.4362 0.8912
vt 0.3959 0.8699
vt 0.4362 0.7008
vt 0.9026 0.7221
vt 0.9429 0.7008
vt 0.9429 0.8912
vt 0.6488 0.8718
vt 0.6084 0.8505
vt 0.6488 0.6814
vt 0.6831 0.8084
vt 0.7235 0.7871
vt 0.7235 0.9775
vt 0.7751 0.9775
vt 0.7347 0.9562
vt 0.7751 0.7871
vt 0.5052 0.7027
vt 0.5456 0.6814
vt 0.5456 0.8718
vt 0.2176 0.8912
vt 0.1772 0.8699
vt 0.2176 0.7008
vt 0.9372 0.2321
vt 0.9776 0.2109
vt 0.9776 0.4012
vt 0.5972 0.8718
vt 0.5568 0.8505
vt 0.5972 0.6814
vt 0.074 0.7221
vt 0.1144 0.7008
vt 0.1144 0.8912
usemtl material_1
f 1/1/1 2/2/1 3/3/1
f 2/4/2 4/5/2 5/6/2
f 4/7/3 2/8/3 6/9/3
f 7/10/4 4/11/4 6/12/4
f 6/13/3 2/14/3 1/15/3
f 8/16/5 9/17/5 1/18/5
f 10/19/6 6/20/6 9/21/6
f 1/22/3 9/23/3 6/24/3
f 9/25/7 8/26/7 11/27/7
f 11/28/8 10/29/8 9/30/8
f 6/31/9 10/32/9 12/33/9
f 12/34/10 7/35/10 6/36/10
f 4/37/11 7/38/11 13/39/11
f 13/40/12 5/41/12 4/42/12
f 2/43/13 5/44/13 14/45/13
f 14/46/14 3/47/14 2/48/14
f 1/49/15 3/50/15 15/51/15
f 15/52/16 8/53/16 1/54/16
f 16/55/17 3/56/17 17/57/17
f 17/58/18 5/59/18 18/60/18
f 18/61/19 19/62/19 17/63/19
f 7/64/20 19/65/20 18/66/20
f 19/67/19 16/68/19 17/69/19
f 8/70/21 16/71/21 20/72/21
f 10/73/22 20/74/22 19/75/22
f 16/76/19 19/77/19 20/78/19
f 20/79/23 11/80/23 8/81/23
f 11/82/24 20/83/24 10/84/24
f 19/85/25 12/86/25 10/87/25
f 12/88/26 19/89/26 7/90/26
f 18/91/27 13/92/27 7/93/27
f 13/94/28 18/95/28 5/96/28
f 17/97/29 14/98/29 5/99/29
f 14/100/30 17/101/30 3/102/30
f 16/103/31 15/104/31 3/105/31
f 15/106/32 16/107/32 8/108/32
s off
